<svg xmlns="http://www.w3.org/2000/svg" width="36.636" height="33.944" viewBox="0 0 36.636 33.944">
  <path id="heart" d="M18.318,33.944A2.1,2.1,0,0,1,16.9,33.39c-1.48-1.348-2.907-2.614-4.166-3.731l-.006-.006a78.878,78.878,0,0,1-9.1-8.891C1.155,17.647,0,14.693,0,11.466A12.215,12.215,0,0,1,2.906,3.322,9.675,9.675,0,0,1,10.235,0a8.984,8.984,0,0,1,5.756,2.069A12.063,12.063,0,0,1,18.318,4.6a12.064,12.064,0,0,1,2.327-2.531A8.984,8.984,0,0,1,26.4,0,9.675,9.675,0,0,1,33.73,3.322a12.215,12.215,0,0,1,2.906,8.144c0,3.227-1.154,6.18-3.633,9.3a78.869,78.869,0,0,1-9.095,8.891c-1.261,1.119-2.69,2.388-4.174,3.738a2.1,2.1,0,0,1-1.416.554ZM10.235,2.235a7.59,7.59,0,0,0-5.751,2.6,9.939,9.939,0,0,0-2.338,6.63c0,2.714.968,5.141,3.14,7.87a77.612,77.612,0,0,0,8.835,8.616l.007.006c1.264,1.122,2.7,2.393,4.187,3.751,1.5-1.36,2.935-2.634,4.2-3.757a77.631,77.631,0,0,0,8.835-8.616c2.171-2.729,3.14-5.156,3.14-7.87a9.939,9.939,0,0,0-2.338-6.63,7.589,7.589,0,0,0-5.75-2.6,6.94,6.94,0,0,0-4.444,1.6,10.741,10.741,0,0,0-2.476,2.984,1.328,1.328,0,0,1-2.327,0,10.731,10.731,0,0,0-2.476-2.984,6.939,6.939,0,0,0-4.443-1.6Zm0,0" transform="translate(0 0)" fill="#707070"/>
</svg>
