<svg id="time" xmlns="http://www.w3.org/2000/svg" width="22.588" height="22.104" viewBox="0 0 22.588 22.104">
  <path id="Caminho_30" data-name="Caminho 30" d="M11.294,0A11.188,11.188,0,0,0,0,11.052,11.188,11.188,0,0,0,11.294,22.1,11.188,11.188,0,0,0,22.588,11.052,11.188,11.188,0,0,0,11.294,0Zm0,21.368A10.442,10.442,0,0,1,.753,11.052,10.442,10.442,0,0,1,11.294.737,10.442,10.442,0,0,1,21.835,11.052,10.442,10.442,0,0,1,11.294,21.368Z" fill="#707070"/>
  <path id="Caminho_31" data-name="Caminho 31" d="M19.4,6a.372.372,0,0,0-.376.368v8.473H13.376a.368.368,0,1,0,0,.737H19.4a.372.372,0,0,0,.376-.368V6.368A.372.372,0,0,0,19.4,6Z" transform="translate(-8.106 -3.79)" fill="#707070"/>
</svg>
